<?xml version="1.0" encoding="utf-8"?>
<!-- Generator: Adobe Illustrator 26.3.1, SVG Export Plug-In . SVG Version: 6.00 Build 0)  -->
<svg version="1.1" id="Layer_1" xmlns="http://www.w3.org/2000/svg" xmlns:xlink="http://www.w3.org/1999/xlink" x="0px" y="0px"
	 viewBox="0 0 125 125" style="enable-background:new 0 0 125 125;" xml:space="preserve">
<style type="text/css">
	.st0{fill:#231F20;}
</style>
<g>
	<path class="st0" d="M62.5,106.7c-24.4,0-44.2-19.8-44.2-44.2s19.8-44.2,44.2-44.2c24.4,0,44.2,19.8,44.2,44.2
		S86.9,106.7,62.5,106.7L62.5,106.7z M62.5,12.5c-27.6,0-50,22.4-50,50s22.4,50,50,50s50-22.4,50-50S90.1,12.5,62.5,12.5L62.5,12.5z
		"/>
	<path class="st0" d="M61.5,93.1c-3,0-5.6-2.5-5.6-5.6c0-3,2.5-5.6,5.6-5.6c3.2,0,5.6,2.5,5.6,5.6C67.1,90.7,64.7,93.1,61.5,93.1
		L61.5,93.1z M79.9,49.8c-0.2,7.3-6.5,13.5-11.7,18.3l-0.5,0.4c-0.5,0.4-0.7,1-0.7,1.7v4c0,2.2-1.6,3.8-3.7,3.8h-3.6
		c-2.2,0-3.8-1.6-3.8-3.8v-7.8c0-1.1,0.4-2.1,1.1-2.9c0.9-0.9,1.7-1.5,2.6-2.4c4.2-3.9,8.9-8.5,9.1-11.5v-0.2c0-3.8-3.1-6.8-6.8-6.8
		c-2.2,0-4.3,1-5.6,2.9c-0.9,1.4-0.8,2.8-0.8,3.8c0.1,0.9,0.1,1.6-0.2,2l-0.1,0.1c-0.6,0.9-1.4,1.3-2.4,1.3h-3.9
		c-2.2,0.1-3.5-1.4-3.8-2.9v-0.1c-0.3-3.8-0.1-4.9,0.2-6.1l0.2-0.4c2.5-7.5,8.2-11.4,16.4-11.4c9.6,0,17.6,7.9,17.8,17.5V49.8
		L79.9,49.8z"/>
</g>
</svg>
